<?xml version="1.0" encoding="UTF-8" standalone="no"?>
<!-- Generator: Adobe Illustrator 17.0.0, SVG Export Plug-In . SVG Version: 6.00 Build 0)  -->

<svg
   xmlns:dc="http://purl.org/dc/elements/1.1/"
   xmlns:cc="http://creativecommons.org/ns#"
   xmlns:rdf="http://www.w3.org/1999/02/22-rdf-syntax-ns#"
   xmlns:svg="http://www.w3.org/2000/svg"
   xmlns="http://www.w3.org/2000/svg"
   xmlns:sodipodi="http://sodipodi.sourceforge.net/DTD/sodipodi-0.dtd"
   xmlns:inkscape="http://www.inkscape.org/namespaces/inkscape"
   version="1.1"
   id="Layer_1"
   x="0px"
   y="0px"
   width="200"
   height="200"
   viewBox="0 0 200.00001 200.00001"
   enable-background="new 0 0 283.46 283.46"
   xml:space="preserve"
   inkscape:version="0.48.5 r10040"
   sodipodi:docname="allure_logo.svg"><metadata
     id="metadata27"><rdf:RDF><cc:Work
         rdf:about=""><dc:format>image/svg+xml</dc:format><dc:type
           rdf:resource="http://purl.org/dc/dcmitype/StillImage" /></cc:Work></rdf:RDF></metadata><defs
     id="defs25" /><sodipodi:namedview
     pagecolor="#ffffff"
     bordercolor="#666666"
     borderopacity="1"
     objecttolerance="10"
     gridtolerance="10"
     guidetolerance="10"
     inkscape:pageopacity="0"
     inkscape:pageshadow="2"
     inkscape:window-width="844"
     inkscape:window-height="588"
     id="namedview23"
     showgrid="false"
     inkscape:zoom="0.83256899"
     inkscape:cx="141.73"
     inkscape:cy="145.83324"
     inkscape:window-x="0"
     inkscape:window-y="0"
     inkscape:window-maximized="0"
     inkscape:current-layer="Layer_1" /><g
     id="g3"
     transform="matrix(1.4667882,0,0,1.4667882,-103.73575,-107.51434)"><polyline
       points="182.575,179.219 204.106,141.949 194.694,125.716 175.45,133.869 180.138,141.949    163.903,170.094 182.575,179.219  "
       id="polyline5"
       style="fill:#ffdd00" /><rect
       x="105.882"
       y="86.602997"
       width="41.897999"
       height="20.716999"
       id="rect7"
       style="fill:#a7d1a3" /><polygon
       points="117.969,197.297 151.946,197.297 151.946,176.58 114.303,176.58 114.303,176.581 99.718,176.581 99.718,162.799 79,162.799 79,197.297 117.969,197.297 "
       id="polygon9"
       style="fill:#ffdd00" /><polygon
       points="99.718,123.114 99.718,107.321 107.095,107.321 107.095,86.604 79,86.604 79,123.114 "
       id="polygon11"
       style="fill:#e30613" /><rect
       x="79"
       y="137.687"
       width="20.718"
       height="25.559999"
       id="rect13"
       style="fill:#e0c305" /><rect
       x="79"
       y="121.768"
       width="20.718"
       height="16.591999"
       id="rect15"
       style="fill:#ffdd00" /><polygon
       points="160.138,107.321 164.763,115.312 183.514,106.408 172.107,86.604 147.681,86.604 147.681,107.321 "
       id="polygon17"
       style="fill:#ffdd00" /><polygon
       points="149.075,197.297 172.122,197.297 185.95,173.344 167.953,163.032 160.153,176.58 149.075,176.58 "
       id="polygon19"
       style="fill:#3dac47" /><polygon
       points="181.27,102.522 194.731,125.84 176.794,136.125 163.372,112.906 "
       id="polygon21"
       style="fill:#e0c305" /></g></svg>
