<svg id="svg" version="1.1" xmlns="http://www.w3.org/2000/svg" xmlns:xlink="http://www.w3.org/1999/xlink" width="400" height="400" viewBox="0, 0, 400,400"><g id="svgg"><path id="path0" d="M193.600 1.859 C 167.163 4.323,150.477 7.773,131.400 14.717 C 63.995 39.253,15.071 99.515,4.193 171.400 C 3.627 175.140,2.857 180.090,2.482 182.400 C 1.488 188.523,1.492 212.807,2.488 218.600 C 2.866 220.800,3.719 226.110,4.383 230.400 C 15.693 303.500,66.231 363.739,136.434 387.798 C 146.881 391.378,165.985 395.852,174.000 396.594 C 175.650 396.747,178.573 397.216,180.496 397.636 C 185.158 398.655,214.904 398.798,218.227 397.818 C 219.312 397.498,222.540 396.965,225.400 396.632 C 307.303 387.112,377.109 322.323,393.726 240.400 C 395.562 231.351,396.004 228.619,396.611 222.576 C 396.941 219.289,397.478 215.363,397.805 213.851 C 398.627 210.053,398.642 190.485,397.826 187.000 C 397.517 185.680,397.063 182.440,396.817 179.800 C 393.107 140.052,374.880 98.905,347.558 68.600 C 318.118 35.946,283.343 16.006,238.800 6.240 C 233.221 5.017,219.710 3.180,207.600 1.999 C 204.001 1.648,196.649 1.574,193.600 1.859 M245.487 29.175 C 246.633 30.644,246.091 33.816,243.608 40.181 C 242.292 43.553,240.240 49.077,239.048 52.456 C 237.103 57.970,234.306 65.687,223.992 94.000 C 217.882 110.773,211.197 128.822,204.808 145.800 C 196.425 168.074,196.337 168.438,198.664 171.203 C 200.769 173.705,198.076 173.600,260.066 173.600 L 316.387 173.600 317.674 174.749 C 320.266 177.065,319.789 178.196,311.792 188.690 C 309.147 192.161,302.225 201.300,296.409 209.000 C 280.906 229.525,275.534 236.633,269.956 244.000 C 264.518 251.183,251.041 269.042,235.397 289.800 C 229.925 297.060,224.279 304.530,222.851 306.400 C 221.423 308.270,216.992 314.120,213.005 319.400 C 209.018 324.680,204.047 331.250,201.958 334.000 C 199.869 336.750,194.612 343.705,190.276 349.456 C 181.494 361.106,179.913 362.800,177.821 362.800 C 174.370 362.800,173.311 359.786,174.941 354.600 C 175.494 352.840,177.565 345.460,179.542 338.200 C 183.214 324.722,184.378 320.419,190.801 296.600 C 193.972 284.843,198.400 268.807,204.828 245.800 C 207.253 237.120,207.008 234.188,203.718 232.554 C 202.261 231.830,200.013 231.790,147.400 231.558 C 110.427 231.395,91.754 231.173,90.000 230.875 C 86.203 230.232,85.323 228.846,87.009 226.164 C 87.548 225.307,96.945 213.237,99.593 210.000 C 100.403 209.010,102.592 206.220,104.458 203.800 C 106.323 201.380,113.517 192.200,120.444 183.400 C 127.372 174.600,134.303 165.780,135.848 163.800 C 137.393 161.820,141.354 156.780,144.649 152.600 C 147.945 148.420,153.232 141.670,156.398 137.600 C 159.564 133.530,163.605 128.388,165.377 126.174 C 167.150 123.959,170.400 119.838,172.600 117.015 C 174.800 114.193,180.740 106.621,185.800 100.191 C 190.860 93.760,196.877 86.091,199.172 83.149 C 201.467 80.207,204.701 76.090,206.359 74.000 C 212.431 66.345,221.286 55.086,228.827 45.433 C 243.224 27.003,243.547 26.688,245.487 29.175 " stroke="none" fill="#cc0404" fill-rule="evenodd"></path></g></svg>
