<svg xmlns="http://www.w3.org/2000/svg" width="185" height="183"><rect id="backgroundrect" width="100%" height="100%" x="0" y="0" fill="none" stroke="none" class="" style=""/><g class="currentLayer" style=""><title>Layer 1</title><g class=""><path d="M51.440004730224615,62.15 l4.1,102.1 l73.75,-94.12 a6.79,6.79 0 0 1 9.6,-1.11 l46,36.92 l-15,-65.61 z" fill="#4279f4" id="svg_3" class=""/><path fill="#0028aa" d="M58.09000473022461,182.98 h65.42 l-40.17,-32.23 l-25.25,32.23 z" id="svg_4" class=""/><path fill="#014bd1" d="M135.72000473022462,83.92 l-44,56.14 l46.88,37.61 l44.47,-55.76 l-47.35,-37.99 z" id="svg_5" class=""/><path fill="#bedcff" d="M39.10000473022461,52.3 l0.010000000000000002,-0.010000000000000002 l38.69,-48.52 l-62.39,30.05 l-15.41,67.51 l39.1,-49.03 z" id="svg_6" class=""/><path fill="#6ca1ff" d="M0.8600047302246097,122.05 l41.44,51.96 l-3.95,-98.98 l-37.49,47.02 z" id="svg_7" class=""/><path fill="#a1c3ff" d="M157.8500047302246,28.73 L98.19000473022462,0 l-37.13,46.56 l96.79,-17.83 z" id="svg_8" class=""/></g></g></svg>