<svg xmlns="http://www.w3.org/2000/svg" width="75.72906494140625" height="75.84236145019531"><rect id="backgroundrect" width="100%" height="100%" x="0" y="0" fill="none" stroke="none" class="" style=""/><g class="currentLayer" style=""><title>Layer 1</title><path d="M60.99159678459168,52.66419449615479 c-2.99,-0.07600000000000004 -5.305,0.2250000000000001 -7.248,1.047 c-0.561,0.2240000000000001 -1.453,0.2240000000000001 -1.5310000000000001,0.933 c0.30300000000000016,0.30000000000000016 0.3380000000000003,0.784 0.6010000000000003,1.198 c0.4480000000000002,0.7470000000000003 1.229,1.7520000000000002 1.9420000000000002,2.276 c0.783,0.6000000000000003 1.569,1.194 2.3930000000000002,1.717 c1.453,0.8990000000000004 3.1,1.4220000000000002 4.516,2.318 c0.8250000000000003,0.521 1.645,1.195 2.471,1.7560000000000002 c0.406,0.29900000000000015 0.6660000000000005,0.784 1.193,0.971 v-0.11400000000000005 c-0.264,-0.3360000000000003 -0.3390000000000003,-0.8220000000000003 -0.5980000000000003,-1.196 l-1.122,-1.082 c-1.084,-1.456 -2.431,-2.7270000000000003 -3.8840000000000003,-3.771 c-1.196,-0.8240000000000003 -3.8120000000000003,-1.944 -4.297,-3.322 l-0.07600000000000004,-0.07600000000000004 c0.8220000000000003,-0.07700000000000004 1.7970000000000002,-0.37500000000000017 2.5780000000000003,-0.6040000000000003 c1.271,-0.3350000000000003 2.43,-0.259 3.734,-0.5940000000000003 c0.6000000000000003,-0.15000000000000008 1.195,-0.3380000000000003 1.7970000000000002,-0.523 v-0.3370000000000003 c-0.6760000000000006,-0.6730000000000006 -1.158,-1.5670000000000002 -1.8690000000000002,-2.203 c-1.9020000000000001,-1.6430000000000002 -3.998,-3.25 -6.164,-4.595 c-1.1600000000000001,-0.7490000000000003 -2.652,-1.231 -3.887,-1.868 c-0.4450000000000002,-0.2250000000000001 -1.195,-0.3360000000000003 -1.457,-0.7100000000000003 c-0.6700000000000006,-0.8220000000000003 -1.047,-1.904 -1.533,-2.8770000000000002 c-1.08,-2.053 -2.129,-4.331 -3.061,-6.502 c-0.6740000000000006,-1.456 -1.084,-2.91 -1.9060000000000001,-4.257 c-3.85,-6.35 -8.031,-10.196 -14.457,-13.971 c-1.381,-0.786 -3.024,-1.121 -4.779,-1.533 l-2.803,-0.14800000000000008 c-0.5980000000000003,-0.262 -1.197,-0.973 -1.719,-1.3090000000000002 c-2.132,-1.344 -7.621,-4.257 -9.189,-0.41100000000000014 c-1.01,2.431 1.494,4.821 2.354,6.054 c0.6350000000000003,0.8560000000000003 1.458,1.83 1.9020000000000001,2.802 c0.263,0.6350000000000003 0.3370000000000003,1.3090000000000002 0.6000000000000003,1.98 c0.5980000000000003,1.6440000000000001 1.157,3.473 1.943,5.007 c0.41000000000000014,0.782 0.8570000000000003,1.604 1.381,2.3120000000000003 c0.30000000000000016,0.41400000000000015 0.8220000000000003,0.5970000000000003 0.936,1.272 c-0.521,0.7440000000000003 -0.562,1.867 -0.8610000000000003,2.801 c-1.344,4.221 -0.8190000000000003,9.45 1.086,12.552 c0.5960000000000003,0.934 2.018,2.99 3.92,2.202 c1.6840000000000006,-0.6720000000000006 1.311,-2.801 1.795,-4.668 c0.11100000000000004,-0.451 0.03800000000000001,-0.7470000000000003 0.262,-1.043 v0.07300000000000002 c0.521,1.045 1.047,2.052 1.53,3.1 c1.159,1.8290000000000002 3.177,3.7350000000000003 4.8580000000000005,5.002 c0.8950000000000004,0.6760000000000006 1.604,1.832 2.725,2.245 V54.45619449615478 h-0.07400000000000002 c-0.2270000000000001,-0.3350000000000003 -0.559,-0.48500000000000015 -0.8570000000000003,-0.7450000000000003 c-0.6740000000000006,-0.6730000000000006 -1.42,-1.495 -1.943,-2.241 c-1.566,-2.093 -2.952,-4.41 -4.182,-6.801 c-0.6020000000000003,-1.1600000000000001 -1.121,-2.428 -1.606,-3.5860000000000003 c-0.2260000000000001,-0.4470000000000002 -0.2260000000000001,-1.121 -0.6010000000000003,-1.346 c-0.562,0.8210000000000003 -1.381,1.532 -1.791,2.5380000000000003 c-0.7110000000000003,1.609 -0.785,3.588 -1.049,5.646 l-0.14700000000000008,0.07200000000000002 c-1.19,-0.29900000000000015 -1.604,-1.53 -2.056,-2.575 c-1.119,-2.654 -1.307,-6.914 -0.3360000000000003,-9.975999999999999 c0.26,-0.783 1.385,-3.249 0.936,-3.995 c-0.2250000000000001,-0.7150000000000003 -0.973,-1.122 -1.383,-1.685 c-0.48200000000000015,-0.7080000000000003 -1.01,-1.604 -1.346,-2.39 c-0.8960000000000004,-2.091 -1.347,-4.408 -2.3120000000000003,-6.498 c-0.451,-0.974 -1.234,-1.982 -1.868,-2.879 c-0.7120000000000003,-1.008 -1.495,-1.718 -2.058,-2.9130000000000003 c-0.18600000000000008,-0.41100000000000014 -0.4470000000000002,-1.083 -0.14800000000000008,-1.53 c0.07300000000000002,-0.30000000000000016 0.2250000000000001,-0.41200000000000014 0.523,-0.48700000000000015 c0.48400000000000015,-0.40900000000000014 1.867,0.11100000000000004 2.352,0.3360000000000003 c1.385,0.56 2.543,1.083 3.6990000000000007,1.867 c0.523,0.37500000000000017 1.084,1.085 1.7550000000000003,1.272 h0.786 c1.193,0.26 2.5380000000000003,0.07200000000000002 3.661,0.41000000000000014 c1.979,0.6360000000000003 3.7720000000000002,1.569 5.38,2.576 c4.893,3.103 8.928,7.5120000000000005 11.652000000000001,12.778 c0.4470000000000002,0.8580000000000003 0.6370000000000003,1.6440000000000001 1.045,2.539 c0.787,1.832 1.7600000000000002,3.7 2.541,5.493 c0.785,1.7550000000000003 1.533,3.547 2.654,5.005 c0.559,0.784 2.805,1.195 3.8120000000000003,1.606 c0.7450000000000003,0.3350000000000003 1.905,0.6330000000000003 2.577,1.044 c1.271,0.783 2.537,1.6820000000000006 3.732,2.543 c0.5950000000000003,0.4480000000000002 2.465,1.3820000000000001 2.576,2.13 M22.88559678459167,20.200194496154786 a5.82,5.82 0 0 0 -1.529,0.18800000000000008 v0.07500000000000002 h0.07200000000000002 c0.30100000000000016,0.5970000000000003 0.8240000000000003,1.011 1.197,1.532 c0.30100000000000016,0.5990000000000003 0.562,1.193 0.8570000000000003,1.791 l0.07200000000000002,-0.07400000000000002 c0.527,-0.37300000000000016 0.789,-0.971 0.789,-1.868 c-0.2270000000000001,-0.264 -0.262,-0.522 -0.451,-0.784 c-0.22000000000000008,-0.37400000000000017 -0.7050000000000003,-0.56 -1.007,-0.8600000000000003 " fill="#5d87a1" id="svg_4" class="selected"/></g></svg>