<svg xmlns="http://www.w3.org/2000/svg" width="75.72906494140625" height="75.84236145019531"><rect id="backgroundrect" width="100%" height="100%" x="0" y="0" fill="none" stroke="none" class="" style=""/><g class="currentLayer" style=""><title>Layer 1</title><path fill="#1181c1" fill-opacity="1" stroke="none" stroke-opacity="1" stroke-width="1" stroke-dasharray="none" stroke-linejoin="miter" stroke-linecap="butt" stroke-dashoffset="" fill-rule="nonzero" opacity="1" marker-start="" marker-mid="" marker-end="" d="M1,38 C1,17.558011049723756 17.558011049723756,1 38,1 C58.44198895027624,1 75,17.558011049723756 75,38 C75,58.44198895027624 58.44198895027624,75 38,75 C17.558011049723756,75 1,58.44198895027624 1,38 Z" id="svg_1" class=""/><path d="M59.262378952957306,51.56184538261413 c-2.7664362615698392,-0.07031744343789563 -4.908342597868895,0.2081766417569279 -6.70606355312983,0.9687153063089038 c-0.5190537601139394,0.2072514122380082 -1.344358490990293,0.2072514122380082 -1.4165263934660284,0.86323914115206 c0.280344544232663,0.27756885567590395 0.31272757739485213,0.7253799428330284 0.5560629408707265,1.1084249636657748 c0.4145028244760165,0.691146450633001 1.137107078752285,1.6210021171472775 1.7967957257420162,2.1058223850611886 c0.7244547133141087,0.5551377113518076 1.4516851151849757,1.1047240455900962 2.214074238774791,1.5886190839850882 c1.344358490990293,0.8317813375087921 2.868211508651004,1.3156763759037835 4.178336507441268,2.144682024855815 c0.7633143531087355,0.482044579357153 1.5220025586228716,1.1056492751090161 2.286242141250526,1.624703035222956 c0.37564318468138963,0.2766436261569842 0.6162028596005068,0.7253799428330284 1.1037988160711767,0.8983978628710081 v-0.1054761651568435 c-0.24426059299479524,-0.3108771183570127 -0.3136528069137715,-0.7605386645519766 -0.5532872523139686,-1.1065745046279354 l-1.0381075202278796,-1.0010983394710924 c-1.0029487985089318,-1.3471341795470524 -2.249232960493739,-2.5231008980939635 -3.5935914514840324,-3.4890405158461077 c-1.1065745046279354,-0.7623891235898159 -3.5269749261218153,-1.7986461847798552 -3.9757112427978587,-3.0736124618511727 l-0.07031744343789563,-0.07031744343789563 c0.7605386645519766,-0.07124267295681536 1.662637445498663,-0.34696106959487993 2.385241699774932,-0.5588386294274866 c1.1759667185469116,-0.3099518888380928 2.248307730974819,-0.2396344454001969 3.45480702364608,-0.5495863342382895 c0.5551377113518076,-0.13878442783795197 1.1056492751090161,-0.31272757739485213 1.662637445498663,-0.48389503839499215 v-0.31180234787593225 c-0.6254551547897036,-0.6226794662329448 -1.0714157829089879,-1.4498346561471365 -1.7292539708608796,-2.038280630180052 c-1.759786544985229,-1.5201520995850324 -3.6990676166408765,-3.0069959364889556 -5.703114754620899,-4.251429639435923 c-1.0732662419468273,-0.6929969096708402 -2.4537086841749876,-1.1389575377901244 -3.596367140040791,-1.72832874134196 c-0.41172713591925747,-0.2081766417569279 -1.1056492751090161,-0.3108771183570127 -1.3480594090659719,-0.6569129584329725 c-0.6199037776761858,-0.7605386645519766 -0.9687153063089038,-1.7616370040230684 -1.4183768525038674,-2.6618853259319155 c-0.9992478804332531,-1.899496202342101 -1.9698136457799955,-4.0071690464411285 -2.832127557413136,-6.015842332015751 c-0.6236046957518645,-1.3471341795470524 -1.0029487985089318,-2.6924179000562654 -1.7634874630609074,-3.938702062041072 c-3.562133647840763,-5.875207445139959 -7.430518266443941,-9.433640174905042 -13.376043155021794,-12.92638160882683 c-1.2777419656280762,-0.7272304018708675 -2.797894065213108,-1.0371822907089598 -4.4216718709171445,-1.4183768525038674 l-2.593418341531859,-0.1369339688001126 c-0.5532872523139686,-0.24241013395695596 -1.1074997341468553,-0.9002483219088471 -1.5904695430229272,-1.2111254402658593 c-1.9725893343367549,-1.2435084734280482 -7.051174163686872,-3.938702062041072 -8.501934049352927,-0.3802693322759883 c-0.9344818141088759,2.249232960493739 1.3822929012660001,4.460531510711771 2.177990287536924,5.601339507539734 c0.587520744513996,0.7919964681952455 1.3489846385848918,1.6931700196230128 1.759786544985229,2.5924931120129395 c0.24333536347587564,0.587520744513996 0.31180234787593225,1.2111254402658593 0.5551377113518076,1.8319544474609637 c0.5532872523139686,1.5210773291039517 1.0704905533900684,3.213322119208044 1.7977209552609352,4.632624201230832 c0.3793441027570688,0.723529483795189 0.7929216977141651,1.4840681483471645 1.2777419656280762,2.1391306477422973 c0.27756885567590395,0.3830450208327474 0.7605386645519766,0.5523620227950483 0.8660148297088195,1.1768919480658313 c-0.482044579357153,0.6883707620762415 -0.5199789896328595,1.72740351182304 -0.7966226157898437,2.59156788249402 c-1.2435084734280482,3.9053937993599637 -0.757762975995217,8.743418953790963 1.004799257546771,11.613480921479805 c0.5514367932761287,0.8641643706709802 1.8671131691799112,2.7664362615698392 3.6268997141651402,2.037355400661132 c1.5580865098607393,-0.6217542367140249 1.2129758993036988,-2.59156788249402 1.6607869864608231,-4.318971394317059 c0.10270047660008445,-0.41727851303277536 0.03515872171894785,-0.691146450633001 0.24241013395695596,-0.9650143882332245 v0.06754175488113665 c0.482044579357153,0.966864847271064 0.9687153063089038,1.8985709728231812 1.4156011639471089,2.868211508651004 c1.0723410124279078,1.692244790104093 2.939454181607819,3.455732253165 4.4947650029118,4.627998053636233 c0.8280804194331134,0.6254551547897036 1.4840681483471645,1.695020478660852 2.5212504390561246,2.077140269974679 V53.219856680518184 h-0.06846698440005629 c-0.2100271007947673,-0.3099518888380928 -0.5172033010761005,-0.44873631667604436 -0.7929216977141651,-0.6892959915951615 c-0.6236046957518645,-0.6226794662329448 -1.3138259168659436,-1.3832181307849196 -1.7977209552609352,-2.0734393518989997 c-1.4489094266282168,-1.9365053830988872 -2.731277539850891,-4.080262178435783 -3.8693098481220964,-6.292485958172735 c-0.5569881703896471,-1.0732662419468273 -1.0371822907089598,-2.2464572719369795 -1.4859186073850046,-3.3178730548459683 c-0.20910187127584748,-0.41357759495709684 -0.20910187127584748,-1.0371822907089598 -0.5560629408707265,-1.2453589324658876 c-0.5199789896328595,0.7596134350330569 -1.2777419656280762,1.417451622984948 -1.6570860683851447,2.3482325190181452 c-0.6578381879518922,1.488694295941763 -0.7263051723519478,3.3197235138838073 -0.9705657653467422,5.223845863820506 l-0.13600873928119292,0.06661652536221699 c-1.1010231275144176,-0.2766436261569842 -1.4840681483471645,-1.4156011639471089 -1.9022718908988594,-2.3824660112181726 c-1.0353318316711204,-2.455559143212827 -1.2092749812280201,-6.397036893810658 -0.3108771183570127,-9.230089680742713 c0.24055967491911645,-0.7244547133141087 1.281442883703755,-3.006070706970036 0.8660148297088195,-3.696291928084116 c-0.2081766417569279,-0.6615391060275709 -0.9002483219088471,-1.0381075202278796 -1.2795924246659156,-1.5590117393796588 c-0.4459606281192855,-0.6550624993951328 -0.9344818141088759,-1.4840681483471645 -1.2453589324658876,-2.2112985502180322 c-0.829005648952033,-1.9346549240610484 -1.246284161984807,-4.078411719397944 -2.1391306477422973,-6.012141413940072 c-0.41727851303277536,-0.9011735514277669 -1.1417332263468833,-1.8338049064988036 -1.72832874134196,-2.663735784969755 c-0.6587634174708124,-0.9326313550710361 -1.3832181307849196,-1.5895443135040077 -1.9041223499366984,-2.6951935886130247 c-0.17209269051906045,-0.3802693322759883 -0.41357759495709684,-1.0020235689900119 -0.1369339688001126,-1.4156011639471089 c0.06754175488113665,-0.27756885567590395 0.2081766417569279,-0.381194561794908 0.48389503839499215,-0.45058677571388395 c0.44781108715712487,-0.3784188732381491 1.72740351182304,0.10270047660008445 2.176139828499084,0.3108771183570127 c1.281442883703755,0.5181285305950204 2.3528586666127427,1.0020235689900119 3.4224239904838916,1.72740351182304 c0.48389503839499215,0.34696106959487993 1.0029487985089318,1.0038740280278513 1.6237778057040366,1.1768919480658313 h0.7272304018708675 c1.1037988160711767,0.24055967491911645 2.3482325190181452,0.06661652536221699 3.3872652687649443,0.3793441027570688 c1.8310292179420444,0.588445974032916 3.489965745365028,1.4516851151849757 4.977734811787871,2.3833912407370925 c4.5271480360739895,2.870987197207763 8.260449144914892,6.950324146124626 10.780774354452097,11.822582792755654 c0.41357759495709684,0.7938469272330851 0.5893712035518359,1.5210773291039517 0.966864847271064,2.3491577485370643 c0.7281556313897877,1.695020478660852 1.6284039532986347,3.423349220002811 2.3510082075749033,5.082285747425795 c0.7263051723519478,1.6237778057040366 1.4183768525038674,3.2817891036081 2.455559143212827,4.630773742192991 c0.5172033010761005,0.7253799428330284 2.5952688005696984,1.1056492751090161 3.5269749261218153,1.4859186073850046 c0.6892959915951615,0.3099518888380928 1.762562233541988,0.5856702854761572 2.3843164702560116,0.9659396177521448 c1.1759667185469116,0.7244547133141087 2.3473072894992244,1.5562360508229003 3.452956564608241,2.3528586666127427 c0.5505115637572088,0.4145028244760165 2.2806907641370078,1.2786671951469961 2.3833912407370925,1.9707388752989152 M24.005582905004022,21.525194280405675 a5.38483580011253,5.38483580011253 0 0 0 -1.4146759344281885,0.17394314955689985 v0.06939221391897599 h0.06661652536221699 c0.2784940851948237,0.5523620227950483 0.7623891235898159,0.935407043627795 1.1074997341468553,1.417451622984948 c0.2784940851948237,0.5542124818328874 0.5199789896328595,1.1037988160711767 0.7929216977141651,1.6570860683851447 l0.06661652536221699,-0.06846698440005629 c0.4875959564706707,-0.3451106105570406 0.7300060904276263,-0.8983978628710081 0.7300060904276263,-1.72832874134196 c-0.2100271007947673,-0.24426059299479524 -0.24241013395695596,-0.4829698088760723 -0.41727851303277536,-0.7253799428330284 c-0.20355049416232954,-0.3460358400759602 -0.6522868108383741,-0.5181285305950204 -0.9317061255521164,-0.7956973862709239 " fill="#ffffff" id="svg_4" class="" fill-opacity="1"/></g></svg>