<svg id="svg" version="1.1" xmlns="http://www.w3.org/2000/svg" xmlns:xlink="http://www.w3.org/1999/xlink" width="400" height="400" viewBox="0, 0, 400,400"><g id="svgg"><path id="path0" d="M152.667 112.667 C 152.334 113.000,152.310 283.300,152.643 284.167 C 153.055 285.242,171.407 285.108,171.986 284.026 C 172.564 282.945,172.564 114.255,171.986 113.174 C 171.566 112.389,153.421 111.912,152.667 112.667 M362.900 112.665 C 362.504 112.825,362.397 124.145,362.385 167.333 C 362.367 233.842,362.384 233.549,357.937 243.190 C 343.369 274.773,301.154 275.277,286.122 244.048 C 270.600 211.800,305.897 177.418,341.200 190.398 C 349.304 193.378,348.730 193.991,348.850 182.240 L 348.945 173.080 347.824 172.187 C 343.860 169.025,328.393 166.930,316.600 167.957 C 311.906 168.366,301.602 170.453,300.600 171.198 C 300.380 171.362,299.480 171.722,298.600 171.999 C 296.723 172.590,289.100 176.536,287.480 177.756 C 274.424 187.585,266.685 198.875,264.008 212.000 C 255.963 251.447,278.985 283.627,317.247 286.418 C 332.387 287.522,346.128 284.625,356.143 278.219 C 357.308 277.474,358.908 276.501,359.700 276.056 L 361.139 275.248 361.770 276.210 C 362.242 276.931,362.400 278.221,362.400 281.357 C 362.400 287.176,361.696 286.800,372.606 286.800 C 381.400 286.800,381.565 286.785,382.177 285.911 C 383.134 284.544,383.129 113.986,382.171 113.029 C 381.555 112.412,364.332 112.087,362.900 112.665 M229.327 170.196 C 228.723 170.619,228.400 171.402,228.212 172.896 C 227.871 175.614,226.116 182.596,225.321 184.400 C 223.727 188.018,222.730 189.972,221.542 191.808 C 214.701 202.380,203.265 210.203,189.400 213.795 C 185.636 214.770,185.972 213.725,186.093 224.102 C 186.183 231.816,186.298 233.362,186.800 233.613 C 187.130 233.778,189.200 234.314,191.400 234.803 C 204.253 237.664,213.949 244.011,221.033 254.202 C 224.700 259.477,227.581 268.696,228.407 277.800 C 229.089 285.310,228.238 284.800,240.078 284.800 L 249.617 284.800 250.066 283.815 C 251.260 281.194,249.155 264.793,246.931 259.400 C 239.932 242.424,233.483 234.344,221.256 227.231 C 218.037 225.359,216.800 224.190,216.800 223.020 C 216.800 222.949,218.105 222.120,219.700 221.177 C 236.145 211.457,244.888 198.338,248.741 177.600 L 249.967 171.000 249.139 170.300 C 247.986 169.325,230.701 169.234,229.327 170.196 " stroke="none" fill="#252525" fill-rule="evenodd"></path><path id="path1" d="M157.900 112.299 C 160.375 112.369,164.425 112.369,166.900 112.299 C 169.375 112.228,167.350 112.171,162.400 112.171 C 157.450 112.171,155.425 112.228,157.900 112.299 M372.915 112.385 C 380.418 112.562,382.097 112.706,382.409 113.200 C 382.646 113.575,382.790 113.618,382.794 113.314 C 382.808 112.205,381.105 112.001,372.526 112.085 L 363.800 112.170 372.915 112.385 M152.196 198.400 C 152.196 245.370,152.243 264.585,152.300 241.100 C 152.357 217.615,152.357 179.185,152.300 155.700 C 152.243 132.215,152.196 151.430,152.196 198.400 M362.194 168.400 C 362.194 198.870,362.242 211.335,362.300 196.100 C 362.358 180.865,362.358 155.935,362.300 140.700 C 362.242 125.465,362.194 137.930,362.194 168.400 M172.400 198.826 C 172.400 257.234,172.270 283.522,171.978 284.126 C 171.570 284.970,171.577 284.974,172.178 284.224 C 172.785 283.466,173.205 114.400,172.600 114.400 C 172.490 114.400,172.400 152.392,172.400 198.826 M382.800 199.711 C 382.800 276.782,382.739 285.118,382.168 286.011 L 381.536 287.000 382.368 286.056 L 383.200 285.111 383.200 199.756 C 383.200 152.810,383.110 114.400,383.000 114.400 C 382.890 114.400,382.800 152.790,382.800 199.711 M68.400 166.247 C 46.735 168.799,27.355 184.417,19.648 205.534 C 15.305 217.434,15.303 234.560,19.642 246.451 C 21.318 251.043,25.852 259.688,27.168 260.800 C 27.298 260.910,28.164 262.021,29.092 263.269 C 51.671 293.633,96.579 294.881,121.167 265.829 C 157.418 222.995,123.885 159.712,68.400 166.247 M322.691 167.489 C 323.401 167.577,324.661 167.579,325.491 167.492 C 326.321 167.405,325.740 167.333,324.200 167.331 C 322.660 167.329,321.981 167.400,322.691 167.489 M316.105 167.887 C 316.714 167.979,317.614 167.977,318.105 167.882 C 318.597 167.787,318.100 167.711,317.000 167.714 C 315.900 167.717,315.497 167.795,316.105 167.887 M330.300 167.882 C 330.795 167.978,331.605 167.978,332.100 167.882 C 332.595 167.787,332.190 167.709,331.200 167.709 C 330.210 167.709,329.805 167.787,330.300 167.882 M311.700 168.276 C 312.085 168.376,312.715 168.376,313.100 168.276 C 313.485 168.175,313.170 168.093,312.400 168.093 C 311.630 168.093,311.315 168.175,311.700 168.276 M239.459 169.586 C 246.843 169.757,248.872 169.921,249.479 170.400 C 249.897 170.730,249.815 170.595,249.297 170.100 C 248.371 169.215,248.203 169.201,239.278 169.286 L 230.200 169.371 239.459 169.586 M228.630 170.367 C 228.228 170.811,228.010 171.527,228.113 172.067 C 228.277 172.924,228.295 172.913,228.346 171.923 C 228.377 171.308,228.782 170.578,229.289 170.223 C 229.778 169.880,229.986 169.600,229.751 169.600 C 229.516 169.600,229.012 169.945,228.630 170.367 M347.700 172.011 C 348.366 172.529,348.822 173.288,348.854 173.933 C 348.904 174.907,348.924 174.920,349.085 174.078 C 349.281 173.055,348.696 172.163,347.433 171.556 C 346.912 171.306,347.012 171.476,347.700 172.011 M227.029 177.429 C 226.881 178.015,226.838 178.572,226.932 178.666 C 227.027 178.760,227.224 178.358,227.371 177.771 C 227.519 177.185,227.562 176.628,227.468 176.534 C 227.373 176.440,227.176 176.842,227.029 177.429 M287.000 177.850 C 286.281 178.462,286.134 178.705,286.633 178.457 C 287.366 178.093,288.741 176.776,288.349 176.814 C 288.267 176.822,287.660 177.288,287.000 177.850 M348.890 184.051 C 348.790 192.331,348.686 192.661,346.316 192.233 C 345.120 192.018,345.090 192.034,345.991 192.419 C 348.927 193.671,349.265 192.713,349.104 183.600 L 348.980 176.600 348.890 184.051 M283.389 180.631 L 281.400 182.461 283.500 180.768 C 285.384 179.249,285.838 178.800,285.489 178.800 C 285.428 178.800,284.483 179.624,283.389 180.631 M277.856 185.617 C 276.192 187.387,274.444 189.412,273.973 190.117 C 273.476 190.861,273.759 190.644,274.647 189.600 C 275.490 188.610,277.338 186.585,278.755 185.100 C 280.172 183.615,281.230 182.400,281.107 182.400 C 280.984 182.400,279.521 183.848,277.856 185.617 M83.076 186.033 C 96.959 188.132,110.491 201.736,114.078 217.200 C 120.272 243.902,98.537 269.320,72.005 266.401 C 54.719 264.498,39.926 249.051,37.951 230.839 C 36.089 213.667,45.921 195.869,61.090 188.952 C 62.801 188.172,64.470 187.397,64.800 187.229 C 68.139 185.531,76.242 185.001,83.076 186.033 M223.478 187.805 C 223.112 188.572,222.895 189.200,222.996 189.200 C 223.270 189.200,224.484 186.751,224.301 186.568 C 224.214 186.481,223.844 187.038,223.478 187.805 M324.300 187.893 C 325.235 187.977,326.765 187.977,327.700 187.893 C 328.635 187.809,327.870 187.740,326.000 187.740 C 324.130 187.740,323.365 187.809,324.300 187.893 M313.000 189.415 C 311.423 189.961,311.420 189.965,312.800 189.732 C 314.432 189.457,316.100 188.848,315.200 188.856 C 314.870 188.859,313.880 189.111,313.000 189.415 M336.600 189.200 C 337.040 189.389,337.670 189.544,338.000 189.544 C 338.378 189.544,338.304 189.417,337.800 189.200 C 337.360 189.011,336.730 188.856,336.400 188.856 C 336.022 188.856,336.096 188.983,336.600 189.200 M306.800 191.600 C 306.030 192.022,305.580 192.366,305.800 192.366 C 306.020 192.366,306.830 192.022,307.600 191.600 C 308.370 191.178,308.820 190.834,308.600 190.834 C 308.380 190.834,307.570 191.178,306.800 191.600 M219.599 194.100 C 219.010 194.904,218.913 195.184,219.345 194.833 C 220.001 194.300,220.993 192.800,220.689 192.800 C 220.613 192.800,220.122 193.385,219.599 194.100 M271.353 193.700 C 269.976 196.036,269.886 196.235,270.587 195.400 C 271.400 194.432,272.100 193.200,271.838 193.200 C 271.733 193.200,271.515 193.425,271.353 193.700 M300.693 195.014 C 299.872 195.572,299.200 196.115,299.200 196.220 C 299.200 196.325,299.920 195.935,300.800 195.353 C 302.197 194.428,302.670 194.000,302.293 194.000 C 302.234 194.000,301.514 194.456,300.693 195.014 M293.789 200.900 L 291.000 203.800 293.900 201.011 C 295.495 199.477,296.800 198.172,296.800 198.111 C 296.800 197.817,296.380 198.206,293.789 200.900 M212.778 201.500 L 211.400 203.000 212.996 201.600 C 213.873 200.830,214.668 200.155,214.762 200.100 C 214.856 200.045,214.759 200.000,214.545 200.000 C 214.332 200.000,213.537 200.675,212.778 201.500 M209.800 203.850 C 209.081 204.462,208.934 204.705,209.433 204.457 C 210.166 204.093,211.541 202.776,211.149 202.814 C 211.067 202.822,210.460 203.288,209.800 203.850 M237.738 205.261 C 235.502 208.258,234.933 209.168,236.149 207.800 C 237.455 206.332,239.706 203.200,239.457 203.200 C 239.357 203.200,238.583 204.128,237.738 205.261 M289.691 205.500 C 289.045 206.325,288.306 207.450,288.050 208.000 C 287.658 208.841,287.665 208.882,288.092 208.257 C 288.371 207.849,289.193 206.724,289.918 205.757 C 291.524 203.618,291.335 203.404,289.691 205.500 M200.400 209.600 C 199.630 210.022,199.144 210.374,199.320 210.383 C 199.744 210.405,202.000 209.232,202.000 208.990 C 202.000 208.728,201.977 208.737,200.400 209.600 M232.800 211.000 C 231.828 211.990,231.123 212.800,231.233 212.800 C 231.343 212.800,232.228 211.990,233.200 211.000 C 234.172 210.010,234.877 209.200,234.767 209.200 C 234.657 209.200,233.772 210.010,232.800 211.000 M196.200 211.414 C 195.540 211.717,195.270 211.966,195.600 211.968 C 195.930 211.970,196.650 211.714,197.200 211.400 C 198.465 210.677,197.789 210.687,196.200 211.414 M227.800 215.446 C 224.362 218.192,223.600 218.954,226.000 217.247 C 228.014 215.814,231.108 213.212,230.800 213.211 C 230.690 213.211,229.340 214.216,227.800 215.446 M284.865 214.217 C 284.609 214.778,284.407 215.454,284.416 215.719 C 284.424 215.983,284.697 215.588,285.022 214.839 C 285.705 213.265,285.561 212.690,284.865 214.217 M185.692 224.051 C 185.609 232.261,185.665 233.153,186.300 233.651 C 186.918 234.136,186.942 234.126,186.508 233.568 C 186.160 233.122,185.982 230.302,185.900 223.968 L 185.784 215.000 185.692 224.051 M262.501 220.200 C 262.505 221.080,262.587 221.393,262.683 220.895 C 262.779 220.398,262.775 219.678,262.675 219.295 C 262.575 218.913,262.496 219.320,262.501 220.200 M217.453 222.512 C 216.726 223.044,217.030 224.801,217.948 225.368 C 218.167 225.503,218.069 225.059,217.731 224.381 C 217.161 223.240,217.171 223.108,217.858 222.587 C 218.266 222.278,218.499 222.020,218.376 222.013 C 218.254 222.006,217.838 222.230,217.453 222.512 M282.893 223.600 C 282.893 224.370,282.975 224.685,283.076 224.300 C 283.176 223.915,283.176 223.285,283.076 222.900 C 282.975 222.515,282.893 222.830,282.893 223.600 M262.140 227.200 C 262.140 229.070,262.209 229.835,262.293 228.900 C 262.377 227.965,262.377 226.435,262.293 225.500 C 262.209 224.565,262.140 225.330,262.140 227.200 M282.528 228.000 C 282.528 229.430,282.601 230.015,282.689 229.300 C 282.778 228.585,282.778 227.415,282.689 226.700 C 282.601 225.985,282.528 226.570,282.528 228.000 M220.600 226.710 C 220.820 226.939,221.990 227.698,223.200 228.398 C 224.410 229.097,225.130 229.412,224.800 229.098 C 224.087 228.419,220.020 226.106,220.600 226.710 M361.709 228.800 C 361.709 229.790,361.787 230.195,361.882 229.700 C 361.978 229.205,361.978 228.395,361.882 227.900 C 361.787 227.405,361.709 227.810,361.709 228.800 M226.400 230.384 C 228.359 232.026,229.972 233.030,228.400 231.628 C 227.630 230.942,226.640 230.193,226.200 229.963 C 225.656 229.680,225.720 229.815,226.400 230.384 M282.893 232.400 C 282.893 233.170,282.975 233.485,283.076 233.100 C 283.176 232.715,283.176 232.085,283.076 231.700 C 282.975 231.315,282.893 231.630,282.893 232.400 M232.211 235.200 C 233.525 236.630,235.288 238.610,236.130 239.600 C 237.291 240.966,237.223 240.822,235.848 239.000 C 234.851 237.680,233.087 235.700,231.928 234.600 C 229.828 232.606,229.829 232.608,232.211 235.200 M262.501 234.200 C 262.505 235.080,262.587 235.393,262.683 234.895 C 262.779 234.398,262.775 233.678,262.675 233.295 C 262.575 232.913,262.496 233.320,262.501 234.200 M358.865 240.217 C 358.195 241.688,358.323 242.002,359.047 240.665 C 359.386 240.040,359.588 239.454,359.496 239.363 C 359.405 239.271,359.121 239.656,358.865 240.217 M206.200 240.607 C 206.640 240.966,207.360 241.435,207.800 241.651 L 208.600 242.044 207.800 241.393 C 207.360 241.034,206.640 240.565,206.200 240.349 L 205.400 239.956 206.200 240.607 M211.600 244.112 C 211.600 244.216,212.807 245.359,214.282 246.651 C 215.757 247.943,216.837 248.794,216.683 248.541 C 216.339 247.976,211.600 243.847,211.600 244.112 M356.069 246.200 C 355.413 247.410,355.043 248.297,355.246 248.171 C 355.658 247.917,357.715 244.000,357.437 244.000 C 357.340 244.000,356.724 244.990,356.069 246.200 M242.600 250.000 C 242.941 250.660,243.311 251.200,243.421 251.200 C 243.531 251.200,243.341 250.660,243.000 250.000 C 242.659 249.340,242.289 248.800,242.179 248.800 C 242.069 248.800,242.259 249.340,242.600 250.000 M353.599 250.100 C 353.010 250.904,352.913 251.184,353.345 250.833 C 354.001 250.300,354.993 248.800,354.689 248.800 C 354.613 248.800,354.122 249.385,353.599 250.100 M291.895 253.000 C 292.795 254.100,294.308 255.720,295.257 256.600 C 296.276 257.545,295.934 257.053,294.420 255.400 C 290.795 251.440,290.002 250.685,291.895 253.000 M219.599 252.700 C 220.122 253.415,220.613 254.000,220.689 254.000 C 220.993 254.000,220.001 252.500,219.345 251.967 C 218.913 251.616,219.010 251.896,219.599 252.700 M348.800 255.800 C 347.828 256.790,347.123 257.600,347.233 257.600 C 347.343 257.600,348.228 256.790,349.200 255.800 C 350.172 254.810,350.877 254.000,350.767 254.000 C 350.657 254.000,349.772 254.810,348.800 255.800 M221.725 255.968 C 222.200 256.835,222.650 257.484,222.724 257.409 C 222.918 257.216,221.677 254.895,221.234 254.621 C 221.029 254.494,221.250 255.100,221.725 255.968 M269.400 257.600 C 269.741 258.260,270.111 258.800,270.221 258.800 C 270.331 258.800,270.141 258.260,269.800 257.600 C 269.459 256.940,269.089 256.400,268.979 256.400 C 268.869 256.400,269.059 256.940,269.400 257.600 M246.428 258.200 C 246.428 258.420,246.686 259.050,247.000 259.600 C 247.314 260.150,247.572 260.420,247.572 260.200 C 247.572 259.980,247.314 259.350,247.000 258.800 C 246.686 258.250,246.428 257.980,246.428 258.200 M344.800 259.260 C 344.030 259.935,343.762 260.305,344.204 260.081 C 344.935 259.711,346.747 257.978,346.362 258.016 C 346.273 258.025,345.570 258.585,344.800 259.260 M271.791 261.445 C 272.185 262.129,273.121 263.389,273.872 264.245 C 274.848 265.356,274.708 265.058,273.381 263.200 C 271.229 260.186,270.787 259.698,271.791 261.445 M301.029 261.246 C 301.283 261.658,305.200 263.715,305.200 263.437 C 305.200 263.340,304.210 262.724,303.000 262.069 C 301.790 261.413,300.903 261.043,301.029 261.246 M337.600 263.600 C 336.830 264.022,336.344 264.374,336.520 264.383 C 336.944 264.405,339.200 263.232,339.200 262.990 C 339.200 262.728,339.177 262.737,337.600 263.600 M248.868 266.000 C 248.888 267.039,249.518 268.746,249.532 267.800 C 249.538 267.360,249.389 266.640,249.200 266.200 C 248.989 265.710,248.861 265.632,248.868 266.000 M278.400 269.400 C 280.260 271.270,281.872 272.800,281.982 272.800 C 282.092 272.800,280.660 271.270,278.800 269.400 C 276.940 267.530,275.328 266.000,275.218 266.000 C 275.108 266.000,276.540 267.530,278.400 269.400 M320.100 267.094 C 321.145 267.176,322.855 267.176,323.900 267.094 C 324.945 267.012,324.090 266.944,322.000 266.944 C 319.910 266.944,319.055 267.012,320.100 267.094 M226.856 269.200 C 226.856 269.530,227.011 270.160,227.200 270.600 C 227.417 271.104,227.544 271.178,227.544 270.800 C 227.544 270.470,227.389 269.840,227.200 269.400 C 226.983 268.896,226.856 268.822,226.856 269.200 M249.693 270.400 C 249.693 271.170,249.775 271.485,249.876 271.100 C 249.976 270.715,249.976 270.085,249.876 269.700 C 249.775 269.315,249.693 269.630,249.693 270.400 M227.693 273.200 C 227.693 273.970,227.775 274.285,227.876 273.900 C 227.976 273.515,227.976 272.885,227.876 272.500 C 227.775 272.115,227.693 272.430,227.693 273.200 M250.131 275.400 C 250.133 276.940,250.205 277.521,250.292 276.691 C 250.379 275.861,250.377 274.601,250.289 273.891 C 250.200 273.181,250.129 273.860,250.131 275.400 M360.593 275.646 C 360.416 275.951,360.418 276.068,360.596 275.906 C 361.442 275.141,361.975 277.143,361.987 281.126 C 362.000 285.111,362.373 286.800,363.243 286.800 C 363.471 286.800,363.374 286.517,363.029 286.171 C 362.537 285.680,362.398 284.613,362.391 281.271 C 362.382 276.886,361.491 274.097,360.593 275.646 M228.101 277.400 C 228.105 278.280,228.187 278.593,228.283 278.095 C 228.379 277.598,228.375 276.878,228.275 276.495 C 228.175 276.113,228.096 276.520,228.101 277.400 M287.801 277.202 C 288.069 277.636,290.400 278.934,290.400 278.650 C 290.400 278.556,289.759 278.101,288.976 277.639 C 288.193 277.177,287.664 276.980,287.801 277.202 M357.097 277.566 C 355.453 278.619,355.225 278.991,356.675 278.254 C 357.376 277.897,358.061 277.424,358.198 277.203 C 358.519 276.684,358.423 276.715,357.097 277.566 M228.501 281.400 C 228.505 282.280,228.587 282.593,228.683 282.095 C 228.779 281.598,228.775 280.878,228.675 280.495 C 228.575 280.113,228.496 280.520,228.501 281.400 M250.470 281.526 C 250.331 284.950,250.806 284.800,240.112 284.800 C 230.949 284.800,230.622 284.773,229.726 283.930 C 229.217 283.452,228.800 283.262,228.800 283.508 C 228.800 284.966,230.360 285.200,240.080 285.200 L 249.582 285.200 250.215 284.233 C 250.630 283.600,250.796 282.666,250.694 281.533 L 250.540 279.800 250.470 281.526 M294.400 281.000 C 295.390 281.530,296.380 281.964,296.600 281.964 C 296.820 281.964,296.190 281.530,295.200 281.000 C 294.210 280.470,293.220 280.036,293.000 280.036 C 292.780 280.036,293.410 280.470,294.400 281.000 M345.200 283.434 C 343.890 283.970,343.877 283.992,345.000 283.775 C 345.660 283.648,346.371 283.376,346.580 283.172 C 347.059 282.703,346.921 282.729,345.200 283.434 M157.723 285.099 C 160.320 285.169,164.460 285.168,166.923 285.098 C 169.385 285.028,167.260 284.971,162.200 284.972 C 157.140 284.972,155.125 285.029,157.723 285.099 M338.600 285.200 C 338.096 285.417,338.022 285.544,338.400 285.544 C 338.730 285.544,339.360 285.389,339.800 285.200 C 340.304 284.983,340.378 284.856,340.000 284.856 C 339.670 284.856,339.040 285.011,338.600 285.200 M312.500 286.276 C 312.885 286.376,313.515 286.376,313.900 286.276 C 314.285 286.175,313.970 286.093,313.200 286.093 C 312.430 286.093,312.115 286.175,312.500 286.276 M332.900 286.276 C 333.285 286.376,333.915 286.376,334.300 286.276 C 334.685 286.175,334.370 286.093,333.600 286.093 C 332.830 286.093,332.515 286.175,332.900 286.276 M316.900 286.687 C 317.505 286.778,318.495 286.778,319.100 286.687 C 319.705 286.595,319.210 286.520,318.000 286.520 C 316.790 286.520,316.295 286.595,316.900 286.687 M327.700 286.687 C 328.305 286.778,329.295 286.778,329.900 286.687 C 330.505 286.595,330.010 286.520,328.800 286.520 C 327.590 286.520,327.095 286.595,327.700 286.687 M368.500 287.098 C 370.865 287.169,374.735 287.169,377.100 287.098 C 379.465 287.028,377.530 286.970,372.800 286.970 C 368.070 286.970,366.135 287.028,368.500 287.098 " stroke="none" fill="#f4302f" fill-rule="evenodd"></path></g></svg>
